<?xml version="1.0" encoding="UTF-8" standalone="no"?>
<!DOCTYPE svg PUBLIC "-//W3C//DTD SVG 1.1//EN"
 "http://www.w3.org/Graphics/SVG/1.1/DTD/svg11.dtd">
<!-- Generated by graphviz version 2.46.1 (20210213.1702)
 -->
<!-- Title: Tree Pages: 1 -->
<svg width="423pt" height="685pt"
 viewBox="0.00 0.00 423.00 685.00" xmlns="http://www.w3.org/2000/svg" xmlns:xlink="http://www.w3.org/1999/xlink">
<g id="graph0" class="graph" transform="scale(1 1) rotate(0) translate(4 681)">
<title>Tree</title>
<polygon fill="white" stroke="transparent" points="-4,4 -4,-681 419,-681 419,4 -4,4"/>
<!-- 0 -->
<g id="node1" class="node">
<title>0</title>
<polygon fill="#fdfcff" stroke="black" points="284.5,-677 126.5,-677 126.5,-609 284.5,-609 284.5,-677"/>
<text text-anchor="middle" x="205.5" y="-661.8" font-family="Times,serif" font-size="14.00">petal length (cm) &lt;= 2.45</text>
<text text-anchor="middle" x="205.5" y="-646.8" font-family="Times,serif" font-size="14.00">samples = 112</text>
<text text-anchor="middle" x="205.5" y="-631.8" font-family="Times,serif" font-size="14.00">value = [38, 35, 39]</text>
<text text-anchor="middle" x="205.5" y="-616.8" font-family="Times,serif" font-size="14.00">class = virginica</text>
</g>
<!-- 1 -->
<g id="node2" class="node">
<title>1</title>
<polygon fill="#e58139" stroke="black" points="186,-565.5 73,-565.5 73,-512.5 186,-512.5 186,-565.5"/>
<text text-anchor="middle" x="129.5" y="-550.3" font-family="Times,serif" font-size="14.00">samples = 38</text>
<text text-anchor="middle" x="129.5" y="-535.3" font-family="Times,serif" font-size="14.00">value = [38, 0, 0]</text>
<text text-anchor="middle" x="129.5" y="-520.3" font-family="Times,serif" font-size="14.00">class = setosa</text>
</g>
<!-- 0&#45;&gt;1 -->
<g id="edge1" class="edge">
<title>0&#45;&gt;1</title>
<path fill="none" stroke="black" d="M180.82,-608.88C172.47,-597.67 163.12,-585.13 154.72,-573.85"/>
<polygon fill="black" stroke="black" points="157.3,-571.45 148.51,-565.52 151.68,-575.63 157.3,-571.45"/>
<text text-anchor="middle" x="144.9" y="-586.56" font-family="Times,serif" font-size="14.00">True</text>
</g>
<!-- 2 -->
<g id="node3" class="node">
<title>2</title>
<polygon fill="#f2ebfc" stroke="black" points="359,-573 204,-573 204,-505 359,-505 359,-573"/>
<text text-anchor="middle" x="281.5" y="-557.8" font-family="Times,serif" font-size="14.00">petal width (cm) &lt;= 1.75</text>
<text text-anchor="middle" x="281.5" y="-542.8" font-family="Times,serif" font-size="14.00">samples = 74</text>
<text text-anchor="middle" x="281.5" y="-527.8" font-family="Times,serif" font-size="14.00">value = [0, 35, 39]</text>
<text text-anchor="middle" x="281.5" y="-512.8" font-family="Times,serif" font-size="14.00">class = virginica</text>
</g>
<!-- 0&#45;&gt;2 -->
<g id="edge2" class="edge">
<title>0&#45;&gt;2</title>
<path fill="none" stroke="black" d="M230.18,-608.88C236.68,-600.15 243.78,-590.62 250.57,-581.51"/>
<polygon fill="black" stroke="black" points="253.52,-583.41 256.69,-573.3 247.91,-579.23 253.52,-583.41"/>
<text text-anchor="middle" x="260.3" y="-594.34" font-family="Times,serif" font-size="14.00">False</text>
</g>
<!-- 3 -->
<g id="node4" class="node">
<title>3</title>
<polygon fill="#50e88f" stroke="black" points="283.5,-469 125.5,-469 125.5,-401 283.5,-401 283.5,-469"/>
<text text-anchor="middle" x="204.5" y="-453.8" font-family="Times,serif" font-size="14.00">petal length (cm) &lt;= 5.35</text>
<text text-anchor="middle" x="204.5" y="-438.8" font-family="Times,serif" font-size="14.00">samples = 39</text>
<text text-anchor="middle" x="204.5" y="-423.8" font-family="Times,serif" font-size="14.00">value = [0, 35, 4]</text>
<text text-anchor="middle" x="204.5" y="-408.8" font-family="Times,serif" font-size="14.00">class = versicolor</text>
</g>
<!-- 2&#45;&gt;3 -->
<g id="edge3" class="edge">
<title>2&#45;&gt;3</title>
<path fill="none" stroke="black" d="M256.5,-504.88C249.91,-496.15 242.72,-486.62 235.84,-477.51"/>
<polygon fill="black" stroke="black" points="238.46,-475.17 229.64,-469.3 232.87,-479.39 238.46,-475.17"/>
</g>
<!-- 12 -->
<g id="node13" class="node">
<title>12</title>
<polygon fill="#8139e5" stroke="black" points="415,-461.5 302,-461.5 302,-408.5 415,-408.5 415,-461.5"/>
<text text-anchor="middle" x="358.5" y="-446.3" font-family="Times,serif" font-size="14.00">samples = 35</text>
<text text-anchor="middle" x="358.5" y="-431.3" font-family="Times,serif" font-size="14.00">value = [0, 0, 35]</text>
<text text-anchor="middle" x="358.5" y="-416.3" font-family="Times,serif" font-size="14.00">class = virginica</text>
</g>
<!-- 2&#45;&gt;12 -->
<g id="edge12" class="edge">
<title>2&#45;&gt;12</title>
<path fill="none" stroke="black" d="M306.5,-504.88C315.05,-493.56 324.62,-480.88 333.2,-469.52"/>
<polygon fill="black" stroke="black" points="336,-471.61 339.23,-461.52 330.42,-467.39 336,-471.61"/>
</g>
<!-- 4 -->
<g id="node5" class="node">
<title>4</title>
<polygon fill="#44e688" stroke="black" points="208.5,-365 48.5,-365 48.5,-297 208.5,-297 208.5,-365"/>
<text text-anchor="middle" x="128.5" y="-349.8" font-family="Times,serif" font-size="14.00">sepal length (cm) &lt;= 4.95</text>
<text text-anchor="middle" x="128.5" y="-334.8" font-family="Times,serif" font-size="14.00">samples = 37</text>
<text text-anchor="middle" x="128.5" y="-319.8" font-family="Times,serif" font-size="14.00">value = [0, 35, 2]</text>
<text text-anchor="middle" x="128.5" y="-304.8" font-family="Times,serif" font-size="14.00">class = versicolor</text>
</g>
<!-- 3&#45;&gt;4 -->
<g id="edge4" class="edge">
<title>3&#45;&gt;4</title>
<path fill="none" stroke="black" d="M179.82,-400.88C173.32,-392.15 166.22,-382.62 159.43,-373.51"/>
<polygon fill="black" stroke="black" points="162.09,-371.23 153.31,-365.3 156.48,-375.41 162.09,-371.23"/>
</g>
<!-- 11 -->
<g id="node12" class="node">
<title>11</title>
<polygon fill="#8139e5" stroke="black" points="334,-357.5 227,-357.5 227,-304.5 334,-304.5 334,-357.5"/>
<text text-anchor="middle" x="280.5" y="-342.3" font-family="Times,serif" font-size="14.00">samples = 2</text>
<text text-anchor="middle" x="280.5" y="-327.3" font-family="Times,serif" font-size="14.00">value = [0, 0, 2]</text>
<text text-anchor="middle" x="280.5" y="-312.3" font-family="Times,serif" font-size="14.00">class = virginica</text>
</g>
<!-- 3&#45;&gt;11 -->
<g id="edge11" class="edge">
<title>3&#45;&gt;11</title>
<path fill="none" stroke="black" d="M229.18,-400.88C237.53,-389.67 246.88,-377.13 255.28,-365.85"/>
<polygon fill="black" stroke="black" points="258.32,-367.63 261.49,-357.52 252.7,-363.45 258.32,-367.63"/>
</g>
<!-- 5 -->
<g id="node6" class="node">
<title>5</title>
<polygon fill="#8139e5" stroke="black" points="107,-253.5 0,-253.5 0,-200.5 107,-200.5 107,-253.5"/>
<text text-anchor="middle" x="53.5" y="-238.3" font-family="Times,serif" font-size="14.00">samples = 1</text>
<text text-anchor="middle" x="53.5" y="-223.3" font-family="Times,serif" font-size="14.00">value = [0, 0, 1]</text>
<text text-anchor="middle" x="53.5" y="-208.3" font-family="Times,serif" font-size="14.00">class = virginica</text>
</g>
<!-- 4&#45;&gt;5 -->
<g id="edge5" class="edge">
<title>4&#45;&gt;5</title>
<path fill="none" stroke="black" d="M104.15,-296.88C95.9,-285.67 86.68,-273.13 78.39,-261.85"/>
<polygon fill="black" stroke="black" points="81.01,-259.5 72.26,-253.52 75.37,-263.65 81.01,-259.5"/>
</g>
<!-- 6 -->
<g id="node7" class="node">
<title>6</title>
<polygon fill="#3fe685" stroke="black" points="283.5,-261 125.5,-261 125.5,-193 283.5,-193 283.5,-261"/>
<text text-anchor="middle" x="204.5" y="-245.8" font-family="Times,serif" font-size="14.00">petal length (cm) &lt;= 4.95</text>
<text text-anchor="middle" x="204.5" y="-230.8" font-family="Times,serif" font-size="14.00">samples = 36</text>
<text text-anchor="middle" x="204.5" y="-215.8" font-family="Times,serif" font-size="14.00">value = [0, 35, 1]</text>
<text text-anchor="middle" x="204.5" y="-200.8" font-family="Times,serif" font-size="14.00">class = versicolor</text>
</g>
<!-- 4&#45;&gt;6 -->
<g id="edge6" class="edge">
<title>4&#45;&gt;6</title>
<path fill="none" stroke="black" d="M153.18,-296.88C159.68,-288.15 166.78,-278.62 173.57,-269.51"/>
<polygon fill="black" stroke="black" points="176.52,-271.41 179.69,-261.3 170.91,-267.23 176.52,-271.41"/>
</g>
<!-- 7 -->
<g id="node8" class="node">
<title>7</title>
<polygon fill="#39e581" stroke="black" points="184,-149.5 71,-149.5 71,-96.5 184,-96.5 184,-149.5"/>
<text text-anchor="middle" x="127.5" y="-134.3" font-family="Times,serif" font-size="14.00">samples = 33</text>
<text text-anchor="middle" x="127.5" y="-119.3" font-family="Times,serif" font-size="14.00">value = [0, 33, 0]</text>
<text text-anchor="middle" x="127.5" y="-104.3" font-family="Times,serif" font-size="14.00">class = versicolor</text>
</g>
<!-- 6&#45;&gt;7 -->
<g id="edge7" class="edge">
<title>6&#45;&gt;7</title>
<path fill="none" stroke="black" d="M179.5,-192.88C170.95,-181.56 161.38,-168.88 152.8,-157.52"/>
<polygon fill="black" stroke="black" points="155.58,-155.39 146.77,-149.52 150,-159.61 155.58,-155.39"/>
</g>
<!-- 8 -->
<g id="node9" class="node">
<title>8</title>
<polygon fill="#9cf2c0" stroke="black" points="359,-157 202,-157 202,-89 359,-89 359,-157"/>
<text text-anchor="middle" x="280.5" y="-141.8" font-family="Times,serif" font-size="14.00">sepal width (cm) &lt;= 2.45</text>
<text text-anchor="middle" x="280.5" y="-126.8" font-family="Times,serif" font-size="14.00">samples = 3</text>
<text text-anchor="middle" x="280.5" y="-111.8" font-family="Times,serif" font-size="14.00">value = [0, 2, 1]</text>
<text text-anchor="middle" x="280.5" y="-96.8" font-family="Times,serif" font-size="14.00">class = versicolor</text>
</g>
<!-- 6&#45;&gt;8 -->
<g id="edge8" class="edge">
<title>6&#45;&gt;8</title>
<path fill="none" stroke="black" d="M229.18,-192.88C235.68,-184.15 242.78,-174.62 249.57,-165.51"/>
<polygon fill="black" stroke="black" points="252.52,-167.41 255.69,-157.3 246.91,-163.23 252.52,-167.41"/>
</g>
<!-- 9 -->
<g id="node10" class="node">
<title>9</title>
<polygon fill="#8139e5" stroke="black" points="270,-53 163,-53 163,0 270,0 270,-53"/>
<text text-anchor="middle" x="216.5" y="-37.8" font-family="Times,serif" font-size="14.00">samples = 1</text>
<text text-anchor="middle" x="216.5" y="-22.8" font-family="Times,serif" font-size="14.00">value = [0, 0, 1]</text>
<text text-anchor="middle" x="216.5" y="-7.8" font-family="Times,serif" font-size="14.00">class = virginica</text>
</g>
<!-- 8&#45;&gt;9 -->
<g id="edge9" class="edge">
<title>8&#45;&gt;9</title>
<path fill="none" stroke="black" d="M258.12,-88.95C252.11,-80.07 245.6,-70.46 239.55,-61.54"/>
<polygon fill="black" stroke="black" points="242.44,-59.55 233.93,-53.24 236.64,-63.48 242.44,-59.55"/>
</g>
<!-- 10 -->
<g id="node11" class="node">
<title>10</title>
<polygon fill="#39e581" stroke="black" points="401,-53 288,-53 288,0 401,0 401,-53"/>
<text text-anchor="middle" x="344.5" y="-37.8" font-family="Times,serif" font-size="14.00">samples = 2</text>
<text text-anchor="middle" x="344.5" y="-22.8" font-family="Times,serif" font-size="14.00">value = [0, 2, 0]</text>
<text text-anchor="middle" x="344.5" y="-7.8" font-family="Times,serif" font-size="14.00">class = versicolor</text>
</g>
<!-- 8&#45;&gt;10 -->
<g id="edge10" class="edge">
<title>8&#45;&gt;10</title>
<path fill="none" stroke="black" d="M302.88,-88.95C308.89,-80.07 315.4,-70.46 321.45,-61.54"/>
<polygon fill="black" stroke="black" points="324.36,-63.48 327.07,-53.24 318.56,-59.55 324.36,-63.48"/>
</g>
</g>
</svg>
